<svg width="19" height="19" viewBox="0 0 19 19" fill="none" xmlns="http://www.w3.org/2000/svg">
<path id="Vector" d="M13.3505 12.0684H12.5067L12.2077 11.7801C13.2544 10.5625 13.8845 8.9818 13.8845 7.26226C13.8845 3.428 10.7765 0.320007 6.94225 0.320007C3.10799 0.320007 0 3.428 0 7.26226C0 11.0965 3.10799 14.2045 6.94225 14.2045C8.6618 14.2045 10.2425 13.5744 11.4601 12.5277L11.7484 12.8267V13.6705L17.0886 19L18.68 17.4086L13.3505 12.0684ZM6.94225 12.0684C4.28284 12.0684 2.13608 9.92168 2.13608 7.26226C2.13608 4.60284 4.28284 2.45609 6.94225 2.45609C9.60167 2.45609 11.7484 4.60284 11.7484 7.26226C11.7484 9.92168 9.60167 12.0684 6.94225 12.0684Z" fill="#808080"/>
</svg>
